<?xml version="1.0" encoding="utf-8"?>
<!DOCTYPE svg PUBLIC "-//W3C//DTD SVG 1.1//EN" "http://www.w3.org/Graphics/SVG/1.1/DTD/svg11.dtd">
<svg version="1.1" xmlns="http://www.w3.org/2000/svg" xmlns:xlink="http://www.w3.org/1999/xlink" x="0px" y="0px" viewBox="0 0 256 256" enable-background="new 0 0 256 256" xml:space="preserve">
<metadata> Svg Vector Icons : http://www.onlinewebfonts.com/icon </metadata>
<g><g><g><path fill="#000000" d="M70,36.1c-8,1.3-14.8,4.9-20.9,11c-8.4,8.4-11.5,16.6-11.5,30.2v6l-4,0.8c-10.5,2-18.8,9.2-22.1,19.1c-4,11.8,0.2,25.2,9.9,31.9l3.2,2.2l0.2,23.1l0.1,23.1l1.2,3.1c2.4,5.8,6,10.2,11,13.3l2.3,1.4v6.5c0,6,0.1,6.7,1.1,8.4c0.6,1,1.8,2.3,2.6,2.9l1.6,1.1H128h83.4l1.6-1.1c0.8-0.6,2-1.8,2.6-2.9c1-1.7,1.1-2.4,1.1-8.3v-6.5l3.2-2.2c3.6-2.4,6.1-5.2,8.2-9c3-5.5,3-5.4,3.2-30.2l0.2-22.6l2.8-1.8c10.7-7.1,14.8-22.3,9.4-35c-3.6-8.5-13.1-15.5-22.5-16.7l-2.6-0.3v-6.1c0-13.7-3.1-21.9-11.5-30.3c-5.6-5.6-9.8-8.1-17.8-10.5c-2.5-0.7-6.6-0.8-59.7-0.9C97.3,35.8,71.4,35.9,70,36.1z M186.3,40c14,2.7,24.9,13.5,27.7,27.7c0.5,2.6,0.7,5.5,0.6,9.9l-0.1,6.2l-3,0.6c-10.3,2.1-19,10.6-21.7,21.2c-0.8,3.2-0.9,5.2-0.9,19.9c0,15.4,0,16.3-0.8,16c-1.1-0.6-119.2-0.6-120.2,0c-0.8,0.4-0.8-0.6-0.8-15.7c0-18.4-0.2-20.3-3.3-26.4c-3.6-7.4-11.3-13.4-19.3-15l-3-0.6l-0.1-6.2c-0.1-4.3,0.1-7.3,0.6-9.9C44.8,53.6,55.3,43.1,69.4,40C74,39.1,181.3,39,186.3,40z M44,88c6.8,1.6,13.1,6.5,16.3,12.6c3.1,5.9,3.1,5.8,3.1,38.2v29.1l1.1,2c0.7,1.4,1.7,2.4,3.1,3.1l2,1.1h58.4c58.1,0,58.4,0,60.3-1c1.2-0.6,2.4-1.7,3-2.6l1.1-1.7l0.2-30.9l0.2-30.9l1.3-3.2c2.8-7,8.2-12.4,15.1-14.9c3-1.1,4.2-1.3,8.3-1.3c3.5,0,5.5,0.3,7.4,0.9c10.2,3.4,16.7,11.9,17.4,22.4c0.6,9.3-3.7,17.6-11.7,22.6l-2.9,1.8l-0.1,22.7c-0.2,24.8-0.3,25.5-3,30.5c-1.5,2.8-5.4,6.8-8,8.3c-4.3,2.5-5.9,2.8-17,3l-10.4,0.3l-0.1,1.5c-0.1,1.2,0,1.5,1,1.8c1.5,0.4,19.9,0,21.6-0.5l1.2-0.3v4.9c0,5.3-0.6,7.7-2.2,8.5c-0.7,0.4-25.1,0.5-82.9,0.5h-82l-1.3-1.3c-1.3-1.3-1.3-1.4-1.3-6.9v-5.6l2,0.3c1.1,0.2,30.4,0.4,65.1,0.4c59.7,0,63.2,0,63.7-0.8c0.4-0.6,0.4-1.1,0-1.6c-0.5-0.8-4.2-0.8-64.4-1.1c-63.3-0.2-63.8-0.2-66.2-1.2c-6.8-2.8-11.3-7.3-13.7-13.8c-1-2.7-1-3.3-1.2-26.2l-0.1-23.4l-2.9-1.8c-9.5-6-13.7-16.6-10.9-27.4C17.9,93,31,85,44,88z M187.6,145.9l1.3,1.3v10.2v10.2l-1.3,1.3l-1.3,1.3H128H69.8l-1.3-1.3l-1.3-1.3v-10.2v-10.2l1.3-1.3l1.3-1.3H128h58.2L187.6,145.9z"/><path fill="#000000" d="M148.9,45.4c-0.3,0.3-0.6,0.9-0.6,1.3c0,1.6,1.1,1.8,6.7,1.7c4.6-0.1,5.5-0.3,6-1c0.4-0.6,0.4-1,0-1.6c-0.4-0.6-1.4-0.8-6-0.9C151.1,44.9,149.3,45,148.9,45.4z"/><path fill="#000000" d="M165.4,45.7c-0.4,0.7-0.4,1.2-0.1,1.8c0.5,0.8,1.2,0.9,10.3,1.1c8.4,0.2,10.2,0.4,12.4,1.2c3.5,1.3,4.9,2.1,7.6,4.1c1.6,1.2,2.5,1.6,3.2,1.4c1.2-0.3,1.7-1.3,1.3-2.4c-0.5-1.2-6.9-5.2-10.6-6.5c-3.5-1.2-4.2-1.3-13.7-1.5C166.1,44.8,165.9,44.8,165.4,45.7z"/><path fill="#000000" d="M37.3,93.4c-1.4,1.5-0.3,3.2,2.2,3.2c0.9,0,2.8,0.4,4.2,0.9c4,1.4,5.1,1.1,5.1-1.2C48.7,94.4,38.7,91.9,37.3,93.4z"/><path fill="#000000" d="M27.6,96c-4.4,3.2-7.2,7.8-8.2,13.3c-0.6,3.2-0.2,4.4,1.2,4.7c1.2,0.2,2.1-0.8,2.1-2.4c0-4.2,2.9-9.4,6.7-12.3c2.7-2,3-2.6,1.7-3.8C30.1,94.4,29.7,94.5,27.6,96z"/></g></g></g>
</svg>